<svg width="1920" height="162" viewBox="0 0 1920 162" fill="none" xmlns="http://www.w3.org/2000/svg">
<path fill-rule="evenodd" clip-rule="evenodd" d="M2090.05 27.9374L2061.5 46.6466C2033.95 65.3311 2002.43 40.4617 1946.33 77.8554C1889.24 115.274 1836.73 88.1983 1779.3 71.6084C1721.88 55.0185 1634.96 111.177 1577.24 82.5913C1519.51 54.005 1487.6 83.0678 1430.62 84.4725C1373.64 85.8771 1290.58 59.6483 1234.19 85.0457C1177.8 110.443 1118.84 84.725 1061.89 128.142C1005.95 171.533 947.5 165.151 891.211 152.973L889.523 85.0457L889.523 21.5202L918.514 20.8055C946.506 20.1155 1003.49 18.7108 1060.47 17.3062C1118.45 15.8769 1175.44 14.4722 1232.42 13.0675C1289.4 11.6629 1346.38 10.2582 1403.37 8.85356C1460.35 7.44889 1518.33 6.01959 1575.31 4.61492C1632.3 3.21026 1689.28 1.8056 1746.26 0.400935C1803.25 -1.00373 1865.15 5.63436 1923.13 4.20505C1980.12 2.80039 2032.34 6.28756 2060.33 5.59755L2089.88 15.0025L2090.05 27.9374Z" fill="#1F55BC"/>
<path fill-rule="evenodd" clip-rule="evenodd" d="M2090.05 27.9374L2061.5 46.6466C2033.95 65.3311 2002.43 40.4617 1946.33 77.8554C1889.24 115.274 1836.73 88.1983 1779.3 71.6084C1721.88 55.0185 1634.96 111.177 1577.24 82.5913C1519.51 54.005 1487.6 83.0678 1430.62 84.4725C1373.64 85.8771 1290.58 59.6483 1234.19 85.0457C1177.8 110.443 1118.84 84.725 1061.89 128.142C1005.95 171.533 947.5 165.151 891.211 152.973L889.523 85.0457L889.523 21.5202L918.514 20.8055C946.506 20.1155 1003.49 18.7108 1060.47 17.3062C1118.45 15.8769 1175.44 14.4722 1232.42 13.0675C1289.4 11.6629 1346.38 10.2582 1403.37 8.85356C1460.35 7.44889 1518.33 6.01959 1575.31 4.61492C1632.3 3.21026 1689.28 1.8056 1746.26 0.400935C1803.25 -1.00373 1865.15 5.63436 1923.13 4.20505C1980.12 2.80039 2032.34 6.28756 2060.33 5.59755L2089.88 15.0025L2090.05 27.9374Z" fill="#1F55BC"/>
<path fill-rule="evenodd" clip-rule="evenodd" d="M-297.468 30.7589L-268.92 49.4681C-241.372 68.1526 -209.852 43.2831 -153.757 80.6768C-96.6613 118.095 -44.1503 91.0197 13.276 74.4299C70.7022 57.84 157.618 113.999 215.34 85.4127C273.062 56.8265 304.973 85.8893 361.955 87.2939C418.938 88.6986 501.993 62.4698 558.384 87.8672C614.775 113.265 673.737 87.5465 730.684 130.963C786.632 174.355 863 150.152 903.054 150.152L903.054 87.8672L903.054 24.3417L874.063 23.6271C846.072 22.937 789.089 21.5324 732.106 20.1277C674.124 18.6984 617.141 17.2937 560.158 15.8891C503.176 14.4844 446.193 13.0798 389.21 11.6751C332.228 10.2704 274.245 8.84112 217.263 7.43645C160.28 6.03179 103.298 4.62711 46.3154 3.22245C-10.6673 1.81778 -72.5741 8.45586 -130.556 7.02655C-187.539 5.62189 -239.765 9.10906 -267.756 8.41905L-297.303 17.824L-297.468 30.7589Z" fill="#1F55BC"/>
<path fill-rule="evenodd" clip-rule="evenodd" d="M-297.468 30.7589L-268.92 49.4681C-241.372 68.1526 -209.852 43.2831 -153.757 80.6768C-96.6613 118.095 -44.1503 91.0197 13.276 74.4299C70.7022 57.84 157.618 113.999 215.34 85.4127C273.062 56.8265 304.973 85.8893 361.955 87.2939C418.938 88.6986 501.993 62.4698 558.384 87.8672C614.775 113.265 673.737 87.5465 730.684 130.963C786.632 174.355 863 150.152 903.054 150.152L903.054 87.8672L903.054 24.3417L874.063 23.6271C846.072 22.937 789.089 21.5324 732.106 20.1277C674.124 18.6984 617.141 17.2937 560.158 15.8891C503.176 14.4844 446.193 13.0798 389.21 11.6751C332.228 10.2704 274.245 8.84112 217.263 7.43645C160.28 6.03179 103.298 4.62711 46.3154 3.22245C-10.6673 1.81778 -72.5741 8.45586 -130.556 7.02655C-187.539 5.62189 -239.765 9.10906 -267.756 8.41905L-297.303 17.824L-297.468 30.7589Z" fill="#1F55BC"/>
</svg>
