<svg width="110" height="1234" viewBox="0 0 110 1234" fill="none" xmlns="http://www.w3.org/2000/svg">
<path fill-rule="evenodd" clip-rule="evenodd" d="M-12.4478 0.424682L4.16998 29.2304C20.7759 57.0361 -2.04082 88.2057 31.1828 144.817C64.4183 202.428 39.3872 254.556 23.7855 311.744C8.1839 368.932 58.0522 456.624 31.6005 513.94C5.14878 571.257 31.0929 603.569 31.7664 660.565C32.4398 717.561 7.85447 800.241 30.2281 856.98C52.6017 913.72 28.7303 972.316 67.3908 1029.86C106.04 1086.41 76.8754 1173 88.0563 1200.87L109.667 1233.4L-30.8197 1200.73L-31.1623 1171.73C-31.4932 1143.73 -32.1666 1086.73 -32.8401 1029.74C-33.5254 971.741 -34.1989 914.745 -34.8723 857.749C-35.5458 800.753 -36.2193 743.757 -36.8927 686.761C-37.5662 629.765 -38.2515 571.769 -38.9249 514.773C-39.5984 457.777 -40.2719 400.781 -40.9453 343.785C-41.6188 286.789 -34.9686 224.982 -35.6539 166.986C-36.3273 109.99 -32.6275 57.8191 -32.9583 29.8211L-24.1451 0.408779L-12.4478 0.424682Z" fill="#1F55BC"/>
</svg>
