<svg width="100" height="1277" viewBox="0 0 100 1277" fill="none" xmlns="http://www.w3.org/2000/svg">
<path fill-rule="evenodd" clip-rule="evenodd" d="M-8.49995 -0.000130351L44.611 71.1659C62.9405 98.9513 16.3295 129.512 53.0005 186.083C89.6832 243.653 61.9362 295.812 44.611 353.021C27.2857 410.23 82.3249 497.86 53.0005 555.211C23.676 612.561 36.3605 670.415 37.034 727.411C37.7074 784.407 26.3817 841.545 51.0535 898.257C75.7253 954.97 49.2529 1013.6 91.9352 1071.1C134.606 1127.6 -29.2191 1249.14 -16.8891 1277L11.9336 1242.08L-16.8889 1242.08L-24.9941 1208.84C-25.3249 1180.84 -18.2358 1128.09 -18.9093 1071.1C-19.5945 1013.1 -20.268 956.104 -20.9415 899.108C-21.6149 842.112 -22.2884 785.116 -22.9619 728.12C-23.6353 671.124 -24.3206 613.128 -24.9941 556.132C-25.6676 499.136 -26.341 442.14 -27.0145 385.144C-27.688 328.148 -28.3614 271.152 -29.0467 213.156C-29.7202 156.16 -30.3936 99.1639 -30.7245 71.1659L-31.0671 42.1679L-8.49995 -0.000130351Z" fill="#1F55BC"/>
</svg>
