<svg width="108" height="1234" viewBox="0 0 108 1234" fill="none" xmlns="http://www.w3.org/2000/svg">
<path fillRule="evenodd" clip-rule="evenodd" d="M-26.0029 1233.67L-7.66148 1204.88C10.6681 1177.1 -14.6037 1145.9 22.0672 1089.33C58.75 1031.76 31.003 979.6 13.6777 922.392C-3.64756 865.183 51.3916 777.553 22.0672 720.202C-7.25723 662.852 5.42722 604.998 6.10069 548.001C6.77416 491.005 -4.55155 433.868 20.1202 377.155C44.792 320.443 18.3196 261.816 61.002 204.316C103.672 147.817 71.3118 61.186 83.6418 33.3297L107.5 0.828951L-47.8221 33.3285L-48.1647 62.3264C-48.4956 90.3245 -49.169 147.32 -49.8425 204.317C-50.5278 262.312 -51.2013 319.308 -51.8747 376.305C-52.5482 433.301 -53.2217 490.297 -53.8951 547.293C-54.5686 604.289 -55.2539 662.285 -55.9273 719.281C-56.6008 776.277 -57.2743 833.273 -57.9477 890.269C-58.6212 947.265 -59.2947 1004.26 -59.98 1062.26C-60.6534 1119.25 -61.3269 1176.25 -61.6577 1204.25L-62.0004 1233.24L-26.0029 1233.67Z" fill="#1F55BC"/>
</svg>
