<svg width="112" height="1243" viewBox="0 0 112 1243" fill="none" xmlns="http://www.w3.org/2000/svg">
<path fill-rule="evenodd" clip-rule="evenodd" d="M76.5265 0.0814441L58.1374 48.5052C39.8078 76.2906 86.4188 106.851 49.7479 163.422C13.0651 220.992 40.8121 273.152 58.1374 330.36C75.4627 387.569 20.4234 475.199 49.7479 532.55C79.0723 589.9 66.3879 647.754 65.7144 704.75C65.0409 761.746 76.3666 818.884 51.6948 875.597C27.0231 932.309 53.4955 990.936 10.8131 1048.44C-31.8574 1104.94 78.0433 1214.82 65.7133 1242.68L90.8147 1219.42L119.637 1219.42L127.742 1186.18C128.073 1158.18 120.984 1105.43 121.658 1048.44C122.343 990.439 123.016 933.443 123.69 876.447C124.363 819.451 125.037 762.455 125.71 705.459C126.384 648.463 127.069 590.467 127.742 533.471C128.416 476.475 129.089 419.479 129.763 362.483C130.436 305.487 131.11 248.491 131.795 190.495C132.469 133.499 133.142 76.5033 133.473 48.5052L133.815 19.5072L76.5265 0.0814441Z" fill="#1F55BC"/>
</svg>
