<svg width="140" height="1234" viewBox="0 0 140 1234" fill="none" xmlns="http://www.w3.org/2000/svg">
<path fillRule="evenodd" clip-rule="evenodd" d="M133.503 0.89909L115.162 29.6844C96.832 57.4698 122.104 88.6684 85.4329 145.239C48.7502 202.81 76.4971 254.969 93.8224 312.178C111.148 369.386 56.1085 457.016 85.4329 514.367C114.757 571.717 86.1064 603.998 85.4329 660.994C84.7595 717.99 112.052 800.701 87.3799 857.414C62.7081 914.126 89.1805 972.753 46.4982 1030.25C3.82764 1086.75 36.1883 1173.38 23.8583 1201.24L0.000224455 1233.74L155.322 1201.24L155.665 1172.24C155.996 1144.24 156.669 1087.25 157.343 1030.25C158.028 972.257 158.701 915.261 159.375 858.265C160.048 801.269 160.722 744.273 161.395 687.277C162.069 630.28 162.754 572.285 163.427 515.289C164.101 458.292 164.774 401.297 165.448 344.301C166.121 287.305 158.69 225.488 159.375 167.492C160.048 110.496 155.891 58.3196 156.222 30.3216L146.439 0.897823L133.503 0.89909Z" fill="#1F55BC"/>
</svg>
