<svg width="175" height="1257" viewBox="0 0 175 1257" fill="none" xmlns="http://www.w3.org/2000/svg">
<path fill-rule="evenodd" clip-rule="evenodd" d="M154.225 1256.11L132.785 1227.36C111.356 1199.61 141.042 1168.36 98.1728 1111.86C55.2918 1054.36 87.9218 1002.15 108.346 944.901C128.771 887.655 64.434 800.135 98.9237 742.723C133.413 685.312 118.663 627.482 117.989 570.486C117.316 513.49 130.708 456.328 101.904 399.664C73.0997 343.001 104.249 284.319 54.3353 226.905C4.43353 170.49 42.5417 83.7916 28.1456 55.9597L0.246185 23.5067L194.224 0.339646L182.585 84.689C182.916 112.687 183.589 169.683 184.263 226.679C184.948 284.675 185.622 341.671 186.295 398.667C186.969 455.663 187.642 512.659 188.316 569.655C188.989 626.651 189.674 684.647 190.348 741.643C191.021 798.639 191.695 855.635 192.368 912.631C193.042 969.627 193.715 1026.62 194.4 1084.62C195.074 1141.62 195.747 1198.61 196.078 1226.61L196.421 1255.61L154.225 1256.11Z" fill="#1F55BC"/>
</svg>
