<svg width="1920" height="163" viewBox="0 0 1920 163" fill="none" xmlns="http://www.w3.org/2000/svg">
<path fill-rule="evenodd" clip-rule="evenodd" d="M2153.05 135.054L2124.5 116.345C2096.95 97.6606 2065.43 122.53 2009.33 85.1363C1952.24 47.7179 1899.73 74.7934 1842.3 91.3833C1784.88 107.973 1697.96 51.8142 1640.24 80.4004C1582.51 108.987 1550.6 79.9239 1493.62 78.5192C1436.64 77.1146 1353.58 103.343 1297.19 77.946C1240.8 52.5486 1181.84 78.2667 1124.89 34.8501C1068.95 -8.54176 1010.5 -2.15948 954.211 10.0184L952.523 77.946L952.523 141.472L981.514 142.186C1009.51 142.876 1066.49 144.281 1123.47 145.686C1181.45 147.115 1238.44 148.519 1295.42 149.924C1352.4 151.329 1409.38 152.733 1466.37 154.138C1523.35 155.543 1581.33 156.972 1638.31 158.377C1695.3 159.781 1752.28 161.186 1809.26 162.591C1866.25 163.995 1928.15 157.357 1986.13 158.787C2043.12 160.191 2095.34 156.704 2123.33 157.394L2152.88 147.989L2153.05 135.054Z" fill="#1F55BC"/>
<path fill-rule="evenodd" clip-rule="evenodd" d="M2153.05 135.054L2124.5 116.345C2096.95 97.6606 2065.43 122.53 2009.33 85.1363C1952.24 47.7179 1899.73 74.7934 1842.3 91.3833C1784.88 107.973 1697.96 51.8142 1640.24 80.4004C1582.51 108.987 1550.6 79.9239 1493.62 78.5192C1436.64 77.1146 1353.58 103.343 1297.19 77.946C1240.8 52.5486 1181.84 78.2667 1124.89 34.8501C1068.95 -8.54176 1010.5 -2.15948 954.211 10.0184L952.523 77.946L952.523 141.472L981.514 142.186C1009.51 142.876 1066.49 144.281 1123.47 145.686C1181.45 147.115 1238.44 148.519 1295.42 149.924C1352.4 151.329 1409.38 152.733 1466.37 154.138C1523.35 155.543 1581.33 156.972 1638.31 158.377C1695.3 159.781 1752.28 161.186 1809.26 162.591C1866.25 163.995 1928.15 157.357 1986.13 158.787C2043.12 160.191 2095.34 156.704 2123.33 157.394L2152.88 147.989L2153.05 135.054Z" fill="#1F55BC"/>
<path fill-rule="evenodd" clip-rule="evenodd" d="M-234.468 132.233L-205.92 113.524C-178.372 94.8391 -146.852 119.709 -90.7566 82.3149C-33.6613 44.8965 18.8497 71.972 76.276 88.5618C133.702 105.152 220.618 48.9927 278.34 77.579C336.062 106.165 367.973 77.1024 424.955 75.6978C481.938 74.2931 564.993 100.522 621.384 75.1245C677.775 49.7271 736.737 75.4452 793.684 32.0287C849.632 -11.3633 926 12.8394 966.054 12.8398L966.054 75.1245L966.054 138.65L937.063 139.365C909.072 140.055 852.089 141.459 795.106 142.864C737.124 144.293 680.141 145.698 623.158 147.103C566.176 148.507 509.193 149.912 452.21 151.317C395.228 152.721 337.245 154.151 280.263 155.555C223.28 156.96 166.298 158.365 109.315 159.769C52.3327 161.174 -9.57406 154.536 -67.5564 155.965C-124.539 157.37 -176.765 153.883 -204.756 154.573L-234.303 145.168L-234.468 132.233Z" fill="#1F55BC"/>
<path fill-rule="evenodd" clip-rule="evenodd" d="M-234.468 132.233L-205.92 113.524C-178.372 94.8391 -146.852 119.709 -90.7566 82.3149C-33.6613 44.8965 18.8497 71.972 76.276 88.5618C133.702 105.152 220.618 48.9927 278.34 77.579C336.062 106.165 367.973 77.1024 424.955 75.6978C481.938 74.2931 564.993 100.522 621.384 75.1245C677.775 49.7271 736.737 75.4452 793.684 32.0287C849.632 -11.3633 926 12.8394 966.054 12.8398L966.054 75.1245L966.054 138.65L937.063 139.365C909.072 140.055 852.089 141.459 795.106 142.864C737.124 144.293 680.141 145.698 623.158 147.103C566.176 148.507 509.193 149.912 452.21 151.317C395.228 152.721 337.245 154.151 280.263 155.555C223.28 156.96 166.298 158.365 109.315 159.769C52.3327 161.174 -9.57406 154.536 -67.5564 155.965C-124.539 157.37 -176.765 153.883 -204.756 154.573L-234.303 145.168L-234.468 132.233Z" fill="#1F55BC"/>
</svg>
