   <svg xmlns="http://www.w3.org/2000/svg" >
 
          <path
            fill="#203e50"
            d="M0 356.6c25.6 21.1 51.2 42.2 78.5 54 27.2 11.8 56.3 14.3 82.7 28.2 26.5 13.9 50.4 39.3 63.6 68.1 13.3 28.7 15.9 60.9 18.6 93.1H0Z"
          />
          <path
            fill="#64a5b6"
            d="M0 437.8c17.1 14 34.1 28.1 52.3 35.9 18.2 7.9 37.5 9.5 55.2 18.8 17.6 9.3 33.6 26.2 42.4 45.4 8.8 19.2 10.6 40.6 12.3 62.1H0Z"
          />
          <path
            fill="#8ddfe8"
            d="M0 518.9c8.5 7 17.1 14 26.2 18 9 3.9 18.7 4.7 27.5 9.4 8.9 4.6 16.8 13.1 21.2 22.7 4.5 9.5 5.3 20.3 6.2 31H0Z"
          />
    </svg>