    <svg xmlns="http://www.w3.org/2000/svg" >
         
              <path
                fill="#203e50"
                d="M900 243.4c-25.5-21.8-50.9-43.6-77.7-55.9-26.7-12.2-54.7-14.9-81.4-28.4-26.6-13.5-51.9-37.7-65.7-66C661.3 64.8 659 32.4 656.6 0H900Z"
              />
              <path
                fill="#64a5b6"
                d="M900 162.2c-17-14.5-34-29-51.8-37.2-17.8-8.1-36.5-10-54.3-18.9-17.7-9-34.6-25.1-43.8-44-9.2-18.9-10.8-40.5-12.3-62.1H900Z"
              />
              <path
                fill="#8ddfe8"
                d="M900 81.1c-8.5-7.2-17-14.5-25.9-18.6-8.9-4.1-18.2-5-27.1-9.5-8.9-4.5-17.3-12.5-21.9-22-4.7-9.4-5.4-20.2-6.2-31H900Z"
              />
     
    </svg>