<?xml version="1.0" encoding="utf-8"?>
<!-- Generator: Adobe Illustrator 25.2.1, SVG Export Plug-In . SVG Version: 6.00 Build 0)  -->
<svg version="1.1" id="Layer_1" xmlns="http://www.w3.org/2000/svg" xmlns:xlink="http://www.w3.org/1999/xlink" x="0px" y="0px"
	 viewBox="0 0 768 1024" style="enable-background:new 0 0 768 1024;" xml:space="preserve">
<style type="text/css">
	.st0{fill:#203E50;}
	.st1{fill:#64A5B6;}
	.st2{fill:#8DDFE8;}
</style>
<path class="st0" d="M773.1,486.8c-25.8-20.9-51.5-41.8-78.9-53.4c-27.3-11.6-56.4-13.8-82.9-27.5c-26.6-13.7-50.7-38.9-64.1-67.6
	c-13.5-28.6-16.4-60.8-19.4-92.9l243.4-2L773.1,486.8z"/>
<path class="st1" d="M772.4,405.6c-17.2-13.9-34.3-27.8-52.6-35.5c-18.3-7.8-37.6-9.2-55.3-18.4c-17.7-9.2-33.8-25.9-42.8-45.1
	c-9-19.1-10.9-40.5-12.8-62l162.2-1.3L772.4,405.6z"/>
<path class="st2" d="M771.8,324.5c-8.6-6.9-17.2-13.9-26.3-17.8c-9-3.8-18.7-4.5-27.6-9.2c-8.9-4.5-16.9-13-21.4-22.5
	c-4.6-9.5-5.5-20.3-6.5-30.9l81.1-0.7L771.8,324.5z"/>
<path class="st0" d="M527.7,245.4c21.6-25.7,43.2-51.3,55.3-78.1c12-26.8,14.5-54.8,27.7-81.6C624,58.9,648,33.4,676.2,19.4
	C704.4,5.2,736.8,2.7,769.1,0l2,243.4L527.7,245.4z"/>
<path class="st1" d="M608.9,244.7c14.2-17.1,28.4-34.2,36.3-52.1c7.9-17.9,9.6-36.6,18.2-54.5c8.7-17.8,24.5-34.8,43.1-44.2
	s39.9-11.1,61.2-12.8l1.3,162.2L608.9,244.7z"/>
<path class="st2" d="M690,244c7-8.6,14-17.1,17.9-26.1c3.9-8.9,4.7-18.2,9.1-27.2c4.3-8.9,12.1-17.4,21.3-22.1
	c9.1-4.8,19.7-5.6,30.2-6.4l0.7,81.1L690,244z"/>
</svg>
