<svg width="1920" height="1600" viewBox="0 0 1920 1600" fill="none" xmlns="http://www.w3.org/2000/svg">
<path d="M0 1079C1166.42 1061.12 2252.24 838.958 2108.09 189.718L0 -32V1079Z" fill="url(#paint0_linear_296_60)"/>
<path d="M555 865.5C363 874.504 108.958 925.661 -68 1077.01H276.5L1940 990.839L1950 356.011C1811 331.011 1814 546.511 1690 590.511C1566 634.511 1627 452 1413.5 549C1200 646 1325.2 889.755 982 782C638.799 674.245 747 856.496 555 865.5Z" fill="url(#paint1_linear_296_60)"/>
<path d="M350.5 912C215.5 864.62 175.958 720.454 -1 870.209L18.5 1099L1969.5 1086.5L1939.5 471.491C1950 237.991 1930 659.5 1737 649C1544 638.5 1509 579 1418.5 649C1328 719 1380.7 941.12 1037.5 834.5C694.299 727.88 485.5 959.38 350.5 912Z" fill="url(#paint2_linear_296_60)"/>
<path d="M196.5 988C10 952.5 -24.0424 947.245 -201 1097H877L1928.5 1071L1918 524C1815.5 626.5 1897 781.5 1704 771C1511 760.5 1456.5 881 1353.5 928.5C1250.5 976 957.5 971.5 684 952.5C410.5 933.5 383 1023.5 196.5 988Z" fill="url(#paint3_linear_296_60)"/>
<path d="M196.5 988C10 952.5 -24.0424 947.245 -201 1097H338H877L1928.5 1071L1918 524C1815.5 626.5 1897 781.5 1704 771C1511 760.5 1456.5 881 1353.5 928.5C1250.5 976 957.5 971.5 684 952.5C410.5 933.5 383 1023.5 196.5 988Z" fill="url(#paint4_linear_296_60)"/>
<path d="M222.5 1136C36 1171.5 1.95763 1176.75 -175 1027H903L1954.5 1053L1944 1600C1841.5 1497.5 1914 1185 1721 1195.5C1528 1206 1482.5 1243 1379.5 1195.5C1276.5 1148 983.5 1152.5 710 1171.5C436.5 1190.5 409 1100.5 222.5 1136Z" fill="url(#paint5_linear_296_60)"/>
<path d="M1686 1136C1872.5 1171.5 1906.54 1176.75 2083.5 1027H1005.5L-46 1053L-35.5 1600C67 1497.5 -5.5 1185 187.5 1195.5C380.5 1206 426 1243 529 1195.5C632 1148 925 1152.5 1198.5 1171.5C1472 1190.5 1499.5 1100.5 1686 1136Z" fill="url(#paint6_linear_296_60)"/>
<path d="M1207 1077.12C1207 1077.12 1232.87 959.99 1502.37 944.99C1771.87 929.991 1577.77 740.708 1871.61 846.106C2165.44 951.503 1992.27 781.052 1992.27 781.052L1969.96 1051.96L1207 1077.12Z" fill="url(#paint7_linear_296_60)"/>
<path d="M1203.63 1076.42C1203.63 1076.42 1229.5 1193.56 1499 1208.56C1768.5 1223.56 1574.41 1412.84 1868.24 1307.44C2162.08 1202.04 1988.9 1372.49 1988.9 1372.49L1965.13 1040.93L1203.63 1076.42Z" fill="url(#paint8_linear_296_60)"/>
<defs>
<linearGradient id="paint0_linear_296_60" x1="732" y1="195.5" x2="1263" y2="1291" gradientUnits="userSpaceOnUse">
<stop stop-opacity="0.42"/>
<stop offset="0.348958" stopColor="#0E537A" stop-opacity="0.604167"/>
<stop offset="0.770833" stopColor="#3C98CB" stop-opacity="0.69"/>
<stop offset="1" stopColor="#49A4D8"/>
</linearGradient>
<linearGradient id="paint1_linear_296_60" x1="944" y1="407.186" x2="1012.93" y2="1026.56" gradientUnits="userSpaceOnUse">
<stop stopColor="#144896" stop-opacity="0.58"/>
<stop offset="0.779455" stopColor="#083962"/>
<stop offset="1" stopColor="#07546B" stop-opacity="0"/>
<stop offset="1" stopColor="#2C778E" stop-opacity="0"/>
<stop offset="1" stopColor="#0C354F"/>
</linearGradient>
<linearGradient id="paint2_linear_296_60" x1="950" y1="751.491" x2="1044" y2="1180.5" gradientUnits="userSpaceOnUse">
<stop stopColor="#084B85"/>
<stop offset="0.135417" stopColor="#145D9B" stop-opacity="0.53125"/>
<stop offset="0.625" stopColor="#124C8F" stop-opacity="0.541867"/>
<stop offset="1" stopColor="#0C479F" stop-opacity="0.55"/>
</linearGradient>
<linearGradient id="paint3_linear_296_60" x1="928.5" y1="804" x2="987" y2="1475" gradientUnits="userSpaceOnUse">
<stop stopColor="#136FBE"/>
<stop offset="0.515625" stopColor="#5FA4DE" stop-opacity="0.83"/>
<stop offset="0.942708" stopColor="#1A65D7" stop-opacity="0"/>
</linearGradient>
<linearGradient id="paint4_linear_296_60" x1="928.5" y1="804" x2="987" y2="1475" gradientUnits="userSpaceOnUse">
<stop stopColor="#136FBE"/>
<stop offset="0.515625" stopColor="#5FA4DE" stop-opacity="0.83"/>
<stop offset="0.942708" stopColor="#1A65D7" stop-opacity="0"/>
</linearGradient>
<linearGradient id="paint5_linear_296_60" x1="954.5" y1="1320" x2="1013" y2="649" gradientUnits="userSpaceOnUse">
<stop stopColor="#136FBE"/>
<stop offset="0.515625" stopColor="#5FA4DE" stop-opacity="0.83"/>
<stop offset="0.942708" stopColor="#1A65D7" stop-opacity="0"/>
</linearGradient>
<linearGradient id="paint6_linear_296_60" x1="954" y1="1320" x2="895.5" y2="649" gradientUnits="userSpaceOnUse">
<stop stopColor="#136FBE"/>
<stop offset="0.515625" stopColor="#5FA4DE" stop-opacity="0.83"/>
<stop offset="0.942708" stopColor="#1A65D7" stop-opacity="0"/>
</linearGradient>
<linearGradient id="paint7_linear_296_60" x1="1577.04" y1="806.218" x2="1571.45" y2="1116.34" gradientUnits="userSpaceOnUse">
<stop stopColor="#5DA0D8"/>
<stop offset="0.473958" stopColor="#196FB8" stop-opacity="0.635417"/>
<stop offset="1" stopColor="#1D31EC" stop-opacity="0"/>
</linearGradient>
<linearGradient id="paint8_linear_296_60" x1="1583.04" y1="1347.9" x2="1577.45" y2="1037.77" gradientUnits="userSpaceOnUse">
<stop stopColor="#5DA0D8"/>
<stop offset="0.473958" stopColor="#196FB8" stop-opacity="0.635417"/>
<stop offset="1" stopColor="#1D31EC" stop-opacity="0"/>
</linearGradient>
</defs>
</svg>
