<svg width="1920" height="3536" viewBox="0 0 1920 3536" fill="none" xmlns="http://www.w3.org/2000/svg">
<path d="M-100 132H1879V3354H-100V132Z" fill="#3E75DF"/>
<path d="M-33 281.844C236.781 317.435 161.89 161.489 628.773 211.928C1095.66 262.368 1033.9 159.99 1337.77 228.408C1641.64 296.826 1539.58 237.897 1737.04 281.844C1934.5 325.792 1925.95 253.378 1925.95 253.378V152H-33V281.844Z" fill="#1F55BC"/>
<path d="M1950 3247.5C1678.29 3211.91 1753.72 3367.85 1283.5 3317.41C813.278 3266.97 875.475 3369.35 569.433 3300.93C263.391 3232.51 366.181 3291.44 167.308 3247.5C-31.5658 3203.55 -22.9451 3275.96 -22.9451 3275.96V3377.34H1950V3247.5Z" fill="#1F55BC"/>
<path fill-rule="evenodd" clip-rule="evenodd" d="M-26.0029 1473.67L-7.66148 1444.89C10.6681 1417.1 -14.6037 1385.9 22.0672 1329.33C58.75 1271.76 31.003 1219.6 13.6777 1162.39C-3.64756 1105.18 51.3916 1017.55 22.0672 960.203C-7.25723 902.853 5.42722 844.998 6.10069 788.002C6.77416 731.006 -4.55155 673.869 20.1202 617.156C44.792 560.444 18.3196 501.817 61.002 444.317C103.672 387.818 71.3118 301.187 83.6418 273.331L107.5 240.83L-47.8221 273.329L-48.1647 302.327C-48.4956 330.325 -49.169 387.321 -49.8425 444.317C-50.5278 502.313 -51.2013 559.309 -51.8747 616.305C-52.5482 673.302 -53.2217 730.298 -53.8951 787.294C-54.5686 844.29 -55.2539 902.286 -55.9273 959.282C-56.6008 1016.28 -57.2743 1073.27 -57.9477 1130.27C-58.6212 1187.27 -59.2947 1244.26 -59.98 1302.26C-60.6534 1359.25 -61.3269 1416.25 -61.6577 1444.25L-62.0004 1473.25L-26.0029 1473.67Z" fill="#1F55BC"/>
<path fill-rule="evenodd" clip-rule="evenodd" d="M-8.49995 1396L44.611 1467.17C62.9405 1494.95 16.3295 1525.51 53.0005 1582.08C89.6832 1639.65 61.9362 1691.81 44.611 1749.02C27.2857 1806.23 82.3249 1893.86 53.0005 1951.21C23.676 2008.56 36.3605 2066.42 37.034 2123.41C37.7074 2180.41 26.3817 2237.55 51.0535 2294.26C75.7253 2350.97 49.2529 2409.6 91.9352 2467.1C134.606 2523.6 -29.2191 2645.14 -16.8891 2673L11.9336 2638.08L-16.8889 2638.08L-24.9941 2604.84C-25.3249 2576.84 -18.2358 2524.09 -18.9093 2467.1C-19.5945 2409.1 -20.268 2352.11 -20.9415 2295.11C-21.6149 2238.11 -22.2884 2181.12 -22.9619 2124.12C-23.6353 2067.13 -24.3206 2009.13 -24.9941 1952.13C-25.6676 1895.14 -26.341 1838.14 -27.0145 1781.14C-27.688 1724.15 -28.3614 1667.15 -29.0467 1609.16C-29.7202 1552.16 -30.3936 1495.16 -30.7245 1467.17L-31.0671 1438.17L-8.49995 1396Z" fill="#1F55BC"/>
<path fill-rule="evenodd" clip-rule="evenodd" d="M-12.4478 2075.42L4.16998 2104.23C20.7759 2132.04 -2.04082 2163.21 31.1828 2219.82C64.4183 2277.43 39.3872 2329.56 23.7855 2386.74C8.1839 2443.93 58.0522 2531.62 31.6005 2588.94C5.14878 2646.26 31.0929 2678.57 31.7664 2735.57C32.4398 2792.56 7.85447 2875.24 30.2281 2931.98C52.6017 2988.72 28.7303 3047.32 67.3908 3104.86C106.04 3161.41 76.8754 3248 88.0563 3275.87L109.667 3308.4L-30.8197 3275.73L-31.1623 3246.73C-31.4932 3218.73 -32.1666 3161.73 -32.8401 3104.74C-33.5254 3046.74 -34.1989 2989.75 -34.8723 2932.75C-35.5458 2875.75 -36.2193 2818.76 -36.8927 2761.76C-37.5662 2704.77 -38.2515 2646.77 -38.9249 2589.77C-39.5984 2532.78 -40.2719 2475.78 -40.9453 2418.79C-41.6188 2361.79 -34.9686 2299.98 -35.6539 2241.99C-36.3273 2184.99 -32.6275 2132.82 -32.9583 2104.82L-24.1451 2075.41L-12.4478 2075.42Z" fill="#1F55BC"/>
<path fill-rule="evenodd" clip-rule="evenodd" d="M1899.23 1497.11L1877.78 1468.36C1856.36 1440.61 1886.04 1409.36 1843.17 1352.86C1800.29 1295.36 1832.92 1243.15 1853.35 1185.9C1873.77 1128.66 1809.43 1041.14 1843.92 983.724C1878.41 926.313 1863.66 868.483 1862.99 811.487C1862.32 754.491 1875.71 697.329 1846.9 640.665C1818.1 584.002 1849.25 525.32 1799.34 467.905C1749.43 411.491 1787.54 324.793 1773.15 296.961L1745.25 264.508L1939.22 241.341L1927.59 325.69C1927.92 353.688 1928.59 410.684 1929.26 467.68C1929.95 525.676 1930.62 582.672 1931.3 639.668C1931.97 696.664 1932.64 753.66 1933.32 810.656C1933.99 867.652 1934.67 925.648 1935.35 982.644C1936.02 1039.64 1936.69 1096.64 1937.37 1153.63C1938.04 1210.63 1938.72 1267.62 1939.4 1325.62C1940.07 1382.62 1940.75 1439.61 1941.08 1467.61L1941.42 1496.61L1899.23 1497.11Z" fill="#1F55BC"/>
<path fill-rule="evenodd" clip-rule="evenodd" d="M1884.53 1345.08L1866.14 1393.51C1847.81 1421.29 1894.42 1451.85 1857.75 1508.42C1821.07 1565.99 1848.81 1618.15 1866.14 1675.36C1883.46 1732.57 1828.42 1820.2 1857.75 1877.55C1887.07 1934.9 1874.39 1992.76 1873.71 2049.75C1873.04 2106.75 1884.37 2163.89 1859.69 2220.6C1835.02 2277.31 1861.5 2335.94 1818.81 2393.44C1776.14 2449.94 1886.04 2559.82 1873.71 2587.68L1898.81 2564.42L1927.64 2564.42L1935.74 2531.18C1936.07 2503.18 1928.98 2450.43 1929.66 2393.44C1930.34 2335.44 1931.02 2278.44 1931.69 2221.45C1932.36 2164.45 1933.04 2107.46 1933.71 2050.46C1934.38 1993.46 1935.07 1935.47 1935.74 1878.47C1936.42 1821.48 1937.09 1764.48 1937.76 1707.48C1938.44 1650.49 1939.11 1593.49 1939.8 1535.5C1940.47 1478.5 1941.14 1421.5 1941.47 1393.51L1941.82 1364.51L1884.53 1345.08Z" fill="#1F55BC"/>
<path fill-rule="evenodd" clip-rule="evenodd" d="M1913.5 2072.9L1895.16 2101.68C1876.83 2129.47 1902.1 2160.67 1865.43 2217.24C1828.75 2274.81 1856.5 2326.97 1873.82 2384.18C1891.15 2441.39 1836.11 2529.02 1865.43 2586.37C1894.76 2643.72 1866.11 2676 1865.43 2732.99C1864.76 2789.99 1892.05 2872.7 1867.38 2929.41C1842.71 2986.13 1869.18 3044.75 1826.5 3102.25C1783.83 3158.75 1816.19 3245.38 1803.86 3273.24L1780 3305.74L1935.32 3273.24L1935.66 3244.24C1936 3216.24 1936.67 3159.25 1937.34 3102.25C1938.03 3044.26 1938.7 2987.26 1939.37 2930.26C1940.05 2873.27 1940.72 2816.27 1941.4 2759.28C1942.07 2702.28 1942.75 2644.28 1943.43 2587.29C1944.1 2530.29 1944.77 2473.3 1945.45 2416.3C1946.12 2359.3 1938.69 2297.49 1939.37 2239.49C1940.05 2182.5 1935.89 2130.32 1936.22 2102.32L1926.44 2072.9L1913.5 2072.9Z" fill="#1F55BC"/>
<path fill-rule="evenodd" clip-rule="evenodd" d="M2128.05 165.054L2099.5 146.345C2071.95 127.661 2040.43 152.53 1984.33 115.136C1927.24 77.7179 1874.73 104.793 1817.3 121.383C1759.88 137.973 1672.96 81.8142 1615.24 110.4C1557.51 138.987 1525.6 109.924 1468.62 108.519C1411.64 107.115 1328.58 133.343 1272.19 107.946C1215.8 82.5486 1156.84 108.267 1099.89 64.8501C1043.95 21.4582 985.5 27.8405 929.211 40.0184L927.523 107.946L927.523 171.472L956.514 172.186C984.506 172.876 1041.49 174.281 1098.47 175.686C1156.45 177.115 1213.44 178.519 1270.42 179.924C1327.4 181.329 1384.38 182.733 1441.37 184.138C1498.35 185.543 1556.33 186.972 1613.31 188.377C1670.3 189.781 1727.28 191.186 1784.26 192.591C1841.25 193.995 1903.15 187.357 1961.13 188.787C2018.12 190.191 2070.34 186.704 2098.33 187.394L2127.88 177.989L2128.05 165.054Z" fill="#1F55BC"/>
<path fill-rule="evenodd" clip-rule="evenodd" d="M2128.05 165.054L2099.5 146.345C2071.95 127.661 2040.43 152.53 1984.33 115.136C1927.24 77.7179 1874.73 104.793 1817.3 121.383C1759.88 137.973 1672.96 81.8142 1615.24 110.4C1557.51 138.987 1525.6 109.924 1468.62 108.519C1411.64 107.115 1328.58 133.343 1272.19 107.946C1215.8 82.5486 1156.84 108.267 1099.89 64.8501C1043.95 21.4582 985.5 27.8405 929.211 40.0184L927.523 107.946L927.523 171.472L956.514 172.186C984.506 172.876 1041.49 174.281 1098.47 175.686C1156.45 177.115 1213.44 178.519 1270.42 179.924C1327.4 181.329 1384.38 182.733 1441.37 184.138C1498.35 185.543 1556.33 186.972 1613.31 188.377C1670.3 189.781 1727.28 191.186 1784.26 192.591C1841.25 193.995 1903.15 187.357 1961.13 188.787C2018.12 190.191 2070.34 186.704 2098.33 187.394L2127.88 177.989L2128.05 165.054Z" fill="#1F55BC"/>
<path fill-rule="evenodd" clip-rule="evenodd" d="M-259.468 162.233L-230.92 143.524C-203.372 124.839 -171.852 149.709 -115.757 112.315C-58.6613 74.8965 -6.15032 101.972 51.276 118.562C108.702 135.152 195.618 78.9927 253.34 107.579C311.062 136.165 342.973 107.102 399.955 105.698C456.938 104.293 539.993 130.522 596.384 105.125C652.775 79.7271 711.737 105.445 768.684 62.0287C824.632 18.6367 901 42.8394 941.054 42.8398L941.054 105.125L941.054 168.65L912.063 169.365C884.072 170.055 827.089 171.459 770.106 172.864C712.124 174.293 655.141 175.698 598.158 177.103C541.176 178.507 484.193 179.912 427.21 181.317C370.228 182.721 312.245 184.151 255.263 185.555C198.28 186.96 141.298 188.365 84.3154 189.769C27.3327 191.174 -34.5741 184.536 -92.5564 185.965C-149.539 187.37 -201.765 183.883 -229.756 184.573L-259.303 175.168L-259.468 162.233Z" fill="#1F55BC"/>
<path fill-rule="evenodd" clip-rule="evenodd" d="M-259.468 162.233L-230.92 143.524C-203.372 124.839 -171.852 149.709 -115.757 112.315C-58.6613 74.8965 -6.15032 101.972 51.276 118.562C108.702 135.152 195.618 78.9927 253.34 107.579C311.062 136.165 342.973 107.102 399.955 105.698C456.938 104.293 539.993 130.522 596.384 105.125C652.775 79.7271 711.737 105.445 768.684 62.0287C824.632 18.6367 901 42.8394 941.054 42.8398L941.054 105.125L941.054 168.65L912.063 169.365C884.072 170.055 827.089 171.459 770.106 172.864C712.124 174.293 655.141 175.698 598.158 177.103C541.176 178.507 484.193 179.912 427.21 181.317C370.228 182.721 312.245 184.151 255.263 185.555C198.28 186.96 141.298 188.365 84.3154 189.769C27.3327 191.174 -34.5741 184.536 -92.5564 185.965C-149.539 187.37 -201.765 183.883 -229.756 184.573L-259.303 175.168L-259.468 162.233Z" fill="#1F55BC"/>
<path fill-rule="evenodd" clip-rule="evenodd" d="M2090.05 3370.94L2061.5 3389.65C2033.95 3408.33 2002.43 3383.46 1946.33 3420.86C1889.24 3458.27 1836.73 3431.2 1779.3 3414.61C1721.88 3398.02 1634.96 3454.18 1577.24 3425.59C1519.51 3397.01 1487.6 3426.07 1430.62 3427.47C1373.64 3428.88 1290.58 3402.65 1234.19 3428.05C1177.8 3453.44 1118.84 3427.73 1061.89 3471.14C1005.95 3514.53 947.5 3508.15 891.211 3495.97L889.523 3428.05L889.523 3364.52L918.514 3363.81C946.506 3363.12 1003.49 3361.71 1060.47 3360.31C1118.45 3358.88 1175.44 3357.47 1232.42 3356.07C1289.4 3354.66 1346.38 3353.26 1403.37 3351.85C1460.35 3350.45 1518.33 3349.02 1575.31 3347.61C1632.3 3346.21 1689.28 3344.81 1746.26 3343.4C1803.25 3342 1865.15 3348.63 1923.13 3347.21C1980.12 3345.8 2032.34 3349.29 2060.33 3348.6L2089.88 3358L2090.05 3370.94Z" fill="#1F55BC"/>
<path fill-rule="evenodd" clip-rule="evenodd" d="M2090.05 3370.94L2061.5 3389.65C2033.95 3408.33 2002.43 3383.46 1946.33 3420.86C1889.24 3458.27 1836.73 3431.2 1779.3 3414.61C1721.88 3398.02 1634.96 3454.18 1577.24 3425.59C1519.51 3397.01 1487.6 3426.07 1430.62 3427.47C1373.64 3428.88 1290.58 3402.65 1234.19 3428.05C1177.8 3453.44 1118.84 3427.73 1061.89 3471.14C1005.95 3514.53 947.5 3508.15 891.211 3495.97L889.523 3428.05L889.523 3364.52L918.514 3363.81C946.506 3363.12 1003.49 3361.71 1060.47 3360.31C1118.45 3358.88 1175.44 3357.47 1232.42 3356.07C1289.4 3354.66 1346.38 3353.26 1403.37 3351.85C1460.35 3350.45 1518.33 3349.02 1575.31 3347.61C1632.3 3346.21 1689.28 3344.81 1746.26 3343.4C1803.25 3342 1865.15 3348.63 1923.13 3347.21C1980.12 3345.8 2032.34 3349.29 2060.33 3348.6L2089.88 3358L2090.05 3370.94Z" fill="#1F55BC"/>
<path fill-rule="evenodd" clip-rule="evenodd" d="M-297.468 3373.76L-268.92 3392.47C-241.372 3411.15 -209.852 3386.28 -153.757 3423.68C-96.6613 3461.1 -44.1503 3434.02 13.276 3417.43C70.7022 3400.84 157.618 3457 215.34 3428.41C273.062 3399.83 304.973 3428.89 361.955 3430.29C418.938 3431.7 501.993 3405.47 558.384 3430.87C614.775 3456.26 673.737 3430.55 730.684 3473.96C786.632 3517.35 863 3493.15 903.054 3493.15L903.054 3430.87L903.054 3367.34L874.063 3366.63C846.072 3365.94 789.089 3364.53 732.106 3363.13C674.124 3361.7 617.141 3360.29 560.158 3358.89C503.176 3357.48 446.193 3356.08 389.21 3354.68C332.228 3353.27 274.245 3351.84 217.263 3350.44C160.28 3349.03 103.298 3347.63 46.3154 3346.22C-10.6673 3344.82 -72.5741 3351.46 -130.556 3350.03C-187.539 3348.62 -239.765 3352.11 -267.756 3351.42L-297.303 3360.82L-297.468 3373.76Z" fill="#1F55BC"/>
<path fill-rule="evenodd" clip-rule="evenodd" d="M-297.468 3373.76L-268.92 3392.47C-241.372 3411.15 -209.852 3386.28 -153.757 3423.68C-96.6613 3461.1 -44.1503 3434.02 13.276 3417.43C70.7022 3400.84 157.618 3457 215.34 3428.41C273.062 3399.83 304.973 3428.89 361.955 3430.29C418.938 3431.7 501.993 3405.47 558.384 3430.87C614.775 3456.26 673.737 3430.55 730.684 3473.96C786.632 3517.35 863 3493.15 903.054 3493.15L903.054 3430.87L903.054 3367.34L874.063 3366.63C846.072 3365.94 789.089 3364.53 732.106 3363.13C674.124 3361.7 617.141 3360.29 560.158 3358.89C503.176 3357.48 446.193 3356.08 389.21 3354.68C332.228 3353.27 274.245 3351.84 217.263 3350.44C160.28 3349.03 103.298 3347.63 46.3154 3346.22C-10.6673 3344.82 -72.5741 3351.46 -130.556 3350.03C-187.539 3348.62 -239.765 3352.11 -267.756 3351.42L-297.303 3360.82L-297.468 3373.76Z" fill="#1F55BC"/>
</svg>
