<svg width="860" height="748" viewBox="0 0 860 748" fill="none" xmlns="http://www.w3.org/2000/svg">
<path d="M346 450L137 660" stroke="#86CFF4" stroke-opacity="0.27"/>
<path d="M449 276V0" stroke="#86CFF4" stroke-opacity="0.27"/>
<path d="M449 220.205L558.248 260.917L603.5 359.205L558.248 457.493L449 498.205L339.752 457.493L294.5 359.205L339.752 260.917L449 220.205Z" fill="#0C245F"/>
<path d="M295 359L1 359" stroke="#86CFF4" stroke-opacity="0.27"/>
<path d="M449 498L449 747" stroke="#86CFF4" stroke-opacity="0.27"/>
<path d="M449 287L512.64 308.088L539 359L512.64 409.912L449 431L385.36 409.912L359 359L385.36 308.088L449 287Z" fill="#163B9A"/>
<path d="M558 457.5L766 665" stroke="#86CFF4" stroke-opacity="0.27"/>
<path d="M603 359L858.5 359" stroke="#86CFF4" stroke-opacity="0.27"/>
<path d="M558.5 261.5L749 71.5" stroke="#86CFF4" stroke-opacity="0.27"/>
<path d="M339.5 262.5L147 70" stroke="#86CFF4" stroke-opacity="0.27"/>
<path d="M616.672 516.151C545.646 525.28 507.844 536.353 449 570C393.738 528.303 356.639 514.525 285 511.5C272.517 450.053 262.987 415.422 224.5 359C265.494 296.565 278.337 266.499 284.97 207.849C357.324 198.707 392.444 188 449 152.5C511.495 188.085 545.685 200.489 614 207C620.634 265.65 637.506 296.565 678.5 359" stroke="#86CFF4" stroke-opacity="0.27"/>
<path d="M616.5 517C625.27 446.545 637.515 414.175 679 359" stroke="#86CFF4" stroke-opacity="0.27"/>
<path d="M157.5 359C208.97 290.257 228.83 253.986 251.5 174.5L449 107.5L647.5 173C664.782 253.389 687.286 291.059 733 359C686.314 429.875 673.447 475.629 661 560.5C569.58 570.784 523.554 592.879 449 645.286C374.461 597.419 325.904 575.067 236.5 560" stroke="#86CFF4" stroke-opacity="0.27"/>
<path d="M157 359C210.161 432.689 223.877 477.985 236.5 560" stroke="#86CFF4" stroke-opacity="0.27"/>
<path d="M713 612.5C597.765 609.897 540.088 636.657 449 697C358.505 641.278 300.177 617.284 192.5 604.5C163.729 504.965 147.208 450.187 83.5 359.5C154.97 272.862 181.193 224.051 201 123.5C315.568 107.836 364.376 93.1884 448.5 50.5C541.568 100.454 593.841 115.821 695.5 125C720.521 223.311 743.935 268.357 801 359.5C749.213 450.852 734.904 510.637 713 612.5Z" stroke="#86CFF4" stroke-opacity="0.27"/>
<path d="M765.5 664.5C641.039 677.219 565.16 695.675 449 746.5C335.811 689.835 266.082 666.863 137 660C105.707 526.312 77.7552 460.296 1 359C88.2186 256.401 120.92 196.414 148 71C285.929 64.3269 351.704 50.5709 448.878 1C546.051 50.5709 611.071 65.3269 749 72C768.971 201.47 797.264 252.474 858.5 359" stroke="#86CFF4" stroke-opacity="0.27"/>
<path d="M765.5 664.5C796.852 534.9 815.075 467.768 859 359" stroke="#86CFF4" stroke-opacity="0.27"/>
</svg>
