<svg id="Layer_1" data-name="Layer 1" xmlns="http://www.w3.org/2000/svg" viewBox="0 0 212.24 51.21" className="fill-white stroke-white">
  <defs><style>.cls-1{fill:none;}

</style></defs>

<rect x="41.94" y="16.03" width="5.76" height="2.6"/><rect x="33.13" y="36.27" width="8.81" height="2.6"/>
<polygon points="43.1 28.31 44.39 28.31 46.06 30.01 46.06 32.73 48.35 36.16 48.88 35.62 48.88 29.08 45.66 25.83 41.94 25.83 41.94 26.58 43.1 28.31"/>
<polygon points="44.39 36.27 41.94 36.27 41.94 38.88 45.66 38.88 46.3 38.23 44.74 35.91 44.39 36.27"/>
<polygon points="36.82 18.64 41.94 18.64 41.94 16.03 35.55 16.03 35.15 16.43 36.71 18.75 36.82 18.64"/>
<polygon points="38.02 25.83 38.01 25.83 39.66 28.31 39.68 28.31 38.02 25.83"/>

<polygon points="36.82 25.83 35.15 24.12 35.13 21.52 33.11 18.5 32.33 19.29 32.33 25.08 35.55 28.31 39.66 28.31 38.01 25.83 36.82 25.83"/>
<polygon points="41.94 25.83 41.44 25.83 41.94 26.58 41.94 25.83"/>
<rect class="cls-1" x="57.28" y="18.64" width="0.03" height="2.37"/>
<rect class="cls-1" x="60.13" y="18.64" width="0.03" height="2.37"/>
<rect x="57.31" y="21" width="2.82" height="17.88"/>
<rect x="50.52" y="16.03" width="6.76" height="2.6"/>
<rect x="60.16" y="16.03" width="6.76" height="2.6"/>
<polygon class="cls-1" points="81.25 18.54 81.11 18.54 78.5 21.15 81.11 18.54 72.84 18.54 72.84 27.32 81.25 
27.32 82.92 25.61 82.92 20.27 80.28 22.91 82.92 20.27 82.92 20.25 81.25 18.54"/>
<polygon points="82.52 29.83 85.74 26.57 85.74 19.29 84.83 18.36 82.92 20.27 82.92 25.61 81.25 27.32 72.84 27.32 
72.84 18.54 81.11 18.54 83.06 16.59 82.52 16.03 70.02 
16.03 70.02 38.88 72.84 38.88 72.84 29.83 79.35 29.83 83.42 38.88 86.55 38.88 82.42 29.83 82.52 29.83"/>
<polygon class="cls-1" points="94.95 18.54 93.24 20.25 93.24 32.94 102.72 18.54 94.95 18.54"/>
<polygon class="cls-1" points="103.19 18.54 102.72 18.54 93.24 32.94 93.24 34.66 94.66 36.08 104.9 20.53 104.9 20.25 103.19 18.54"/>
<polygon class="cls-1" points="94.95 36.37 103.19 36.37 104.9 34.66 104.9 20.53 94.66 36.08 94.95 36.37"/>
<polygon points="106.51 18.08 104.9 20.53 104.9 34.66 103.19 36.37 94.95 36.37 94.66 36.08 93.15 38.36 93.68 38.88 104.46 38.88 107.72 35.62 107.72 19.29 106.51 18.08"/>
<polygon points="91.54 36.83 93.15 34.38 93.15 20.25 94.86 18.54 103.11 18.54 103.4 18.83 104.9 16.55 104.38 16.03 93.59 16.03 90.33 19.29 90.33 35.62 91.54 36.83"/>
<polygon points="120.37 36.18 119.69 36.18 113.08 16.03 110.11 16.03 117.86 38.88 122.19 38.88 126.55 26.03 124.23 24.39 120.37 36.18"/>
<polygon points="129.94 16.03 126.97 16.03 125.17 21.51 127.52 23.17 129.94 16.03"/>
<polygon points="133.04 38.88 148.11 38.88 148.11 36.27 135.87 36.27 135.87 33.23 133.04 33.23 133.04 38.88"/>
<polygon points="133.04 31.34 135.87 31.34 135.87 28.15 146.81 28.15 146.81 25.58 135.87 25.58 135.87 23.16 133.04 23.16 133.04 31.34"/>
<polygon points="148.11 18.64 148.11 16.03 133.04 16.03 133.04 21.26 135.87 21.26 135.87 18.64 148.11 18.64"/>
<polygon class="cls-1" points="163.64 18.54 163.5 18.54 160.89 21.15 163.5 18.54 155.24 18.54 155.24 27.32 163.64 27.32 165.31 25.61 165.31 20.27 162.68 22.91 165.31 20.27 165.31 20.25 163.64 18.54"/>
<polygon points="164.91 29.83 168.14 26.57 168.14 19.29 167.22 18.36 165.31 20.27 165.31 25.61 163.64 27.32 155.24 27.32 155.24 18.54 163.5 18.54 165.46 16.59 164.91 16.03 152.42 16.03 152.42 38.88 155.24 38.88 155.24 29.83 161.75 29.83 165.81 38.88 168.94 38.88 164.82 29.83 164.91 29.83"/></svg>