<?xml version="1.0" encoding="utf-8"?>
<!-- Generator: Adobe Illustrator 25.2.1, SVG Export Plug-In . SVG Version: 6.00 Build 0)  -->
<svg version="1.1" id="Layer_1" xmlns="http://www.w3.org/2000/svg" xmlns:xlink="http://www.w3.org/1999/xlink" x="0px" y="0px"
	 viewBox="0 0 187 212.9" style="enable-background:new 0 0 187 212.9;" xml:space="preserve">
<style type="text/css">
	.st0{fill:none;stroke:#F9A01B;stroke-miterlimit:10;}
	.st1{fill:none;stroke:#F9A01B;stroke-width:2;stroke-miterlimit:10;}
	.st2{fill:#F9A01B;stroke:#F9A01B;stroke-miterlimit:10;}
	.st3{fill:none;stroke:#F9A01B;stroke-width:2;stroke-linecap:round;stroke-miterlimit:10;}
</style>
<path class="st0" d="M116.1,124.6"/>
<path class="st0" d="M157,66.6"/>
<path class="st0" d="M157,94.6"/>
<path class="st0" d="M135.5,116.5"/>
<path class="st0" d="M116.1,116.5"/>
<path class="st0" d="M114.9,39"/>
<path class="st0" d="M134.5,59"/>
<path class="st0" d="M134.5,91.6"/>
<path class="st0" d="M114.9,110.7"/>
<path class="st1" d="M117.5,129.4c0,13.2-10.7,23.8-23.8,23.8c-13.2,0-23.8-10.7-23.8-23.8c0-8.8,4.8-16.6,12-20.7
	c-1.8-2.4-2.9-5.4-2.9-8.7c0-8,6.5-14.5,14.5-14.5c8,0,14.5,6.5,14.5,14.5c0,3.2-1,6.2-2.8,8.5C112.5,112.7,117.5,120.5,117.5,129.4
	z"/>
<polyline class="st1" points="105.9,107.6 129.2,107.6 151.1,129.3 151.1,155.6 "/>
<polyline class="st1" points="115.6,120.1 128,132.3 128.5,165 108.7,185.5 "/>
<polyline class="st1" points="108,98.9 128.5,99.3 151.1,77.2 151.1,49.2 "/>
<polyline class="st1" points="106.8,94.3 128,74.2 128.5,42.4 108,21.2 "/>
<circle class="st2" cx="104.9" cy="188.7" r="5.1"/>
<circle class="st2" cx="151.1" cy="160.6" r="5.1"/>
<circle class="st2" cx="151.1" cy="44" r="5.1"/>
<circle class="st2" cx="104.5" cy="17.5" r="5.1"/>
<polyline class="st1" points="71.6,120.1 59.1,132.3 58.7,165 78.4,185.5 "/>
<circle class="st2" cx="82.2" cy="188.7" r="5.1"/>
<polyline class="st1" points="80.7,107.9 57.4,107.9 35.5,129.6 35.5,155.9 "/>
<circle class="st2" cx="35.5" cy="160.9" r="5.1"/>
<polyline class="st1" points="79.1,98.9 58.5,99.3 35.9,77.2 35.9,49.2 "/>
<circle class="st2" cx="35.9" cy="44" r="5.1"/>
<polyline class="st1" points="80.4,94.4 59.3,74.3 58.8,42.5 79.3,21.3 "/>
<circle class="st2" cx="82.7" cy="17.6" r="5.1"/>
<path class="st2" d="M103.6,121.9c2.2,2.4,3.5,5.6,3.5,9c0,7.4-6,13.5-13.5,13.5s-13.5-6-13.5-13.5c0-3.5,1.3-6.7,3.5-9l10,9.4
	L103.6,121.9z"/>
<circle class="st2" cx="93.7" cy="99.1" r="5.5"/>
<line class="st1" x1="93.7" y1="101.4" x2="93.7" y2="134.9"/>
<circle class="st2" cx="93.7" cy="133.1" r="4.5"/>
<path class="st3" d="M99.8,85.5l1.7-2.8c0.2-0.3,0.2-0.8,0-1.1L98,76.7"/>
<path class="st3" d="M87.4,85.5l-1.7-2.8c-0.2-0.3-0.2-0.8,0-1.1l3.5-4.9"/>
</svg>
